<svg width="20" height="20" viewBox="0 0 20 20" fill="none" xmlns="http://www.w3.org/2000/svg">
<path fill-rule="evenodd" clip-rule="evenodd" d="M13.15 1.98979C12.4865 1.98979 11.8501 2.25337 11.3809 2.72256L3.72259 10.3809C2.94066 11.1628 2.50138 12.2233 2.50138 13.3291C2.50138 14.4349 2.94066 15.4955 3.72259 16.2774C4.50451 17.0593 5.56502 17.4986 6.67083 17.4986C7.77664 17.4986 8.83715 17.0593 9.61907 16.2774L17.2774 8.61905C17.6028 8.29361 18.1305 8.29361 18.4559 8.61905C18.7814 8.94449 18.7814 9.47213 18.4559 9.79756L10.7976 17.4559C9.7031 18.5504 8.21866 19.1653 6.67083 19.1653C5.123 19.1653 3.63856 18.5504 2.54407 17.4559C1.44959 16.3614 0.834717 14.877 0.834717 13.3291C0.834717 11.7813 1.44959 10.2969 2.54407 9.20238L10.2024 1.54405C10.9842 0.762302 12.0444 0.32312 13.15 0.32312C14.2556 0.32312 15.3158 0.762302 16.0976 1.54405C16.8793 2.3258 17.3185 3.38608 17.3185 4.49164C17.3185 5.5972 16.8793 6.65748 16.0976 7.43923L8.43092 15.0976C7.96191 15.5666 7.32579 15.8301 6.6625 15.8301C5.99921 15.8301 5.36309 15.5666 4.89407 15.0976C4.42506 14.6285 4.16157 13.9924 4.16157 13.3291C4.16157 12.6659 4.42506 12.0297 4.89407 11.5607L11.9694 4.4937C12.2951 4.16846 12.8227 4.16877 13.1479 4.4944C13.4732 4.82003 13.4729 5.34766 13.1472 5.67291L6.07259 12.7392C5.91635 12.8956 5.82824 13.108 5.82824 13.3291C5.82824 13.5504 5.91613 13.7626 6.07259 13.9191C6.22904 14.0755 6.44124 14.1634 6.6625 14.1634C6.88376 14.1634 7.09595 14.0755 7.25241 13.9191L14.9191 6.26072C15.3881 5.79156 15.6519 5.15502 15.6519 4.49164C15.6519 3.82811 15.3883 3.19175 14.9191 2.72256C14.4499 2.25337 13.8135 1.98979 13.15 1.98979Z" fill="#624C90"/>
</svg>
